<svg width="512" height="512" viewBox="0 0 512 512" fill="none" xmlns="http://www.w3.org/2000/svg">
  <rect width="512" height="512" rx="112" fill="white"/>
  <path d="M210 118C172 151 150 204 150 256C150 338 203 394 285 404C260 414 234 417 208 414C135 406 78 350 78 271C78 181 142 104 230 88C225 98 218 108 210 118Z" fill="#111111"/>
  <path d="M238 122C202 154 182 203 182 256C182 324 225 373 292 385C266 394 238 396 211 392C149 383 103 335 103 269C103 191 156 124 231 107C229 113 225 118 220 123Z" fill="#FFFFFF"/>
  <path d="M243 130C212 157 194 202 194 254C194 319 233 361 295 372C279 377 262 378 246 376C197 369 160 331 160 272C160 205 206 148 271 136C262 138 252 134 243 130Z" fill="#111111"/>
  <path d="M227 234C243 214 268 202 294 202C322 202 347 214 365 235C385 259 393 292 386 322C380 349 364 372 341 388C320 403 293 410 267 408C242 406 220 395 202 379C206 370 211 361 218 353C229 340 244 331 260 326C276 321 293 320 307 313C320 306 330 293 331 277C333 259 323 242 309 232C291 219 267 218 244 225C238 227 232 230 227 234Z" fill="#111111"/>
  <path d="M316 208L340 185L366 164L387 173L381 197L397 206L389 228L401 239L389 260L365 258L344 247L333 231L316 208Z" fill="#111111"/>
</svg>
